<?xml version="1.0" encoding="iso-8859-1"?>
<!-- Generator: Adobe Illustrator 18.1.1, SVG Export Plug-In . SVG Version: 6.00 Build 0)  -->
<svg version="1.1" id="Capa_1" xmlns="http://www.w3.org/2000/svg" xmlns:xlink="http://www.w3.org/1999/xlink" x="0px" y="0px"
	 viewBox="0 0 334.145 334.145" style="enable-background:new 0 0 334.145 334.145;" xml:space="preserve">
<g>
	<g>
		<path style="fill:#010002;" d="M131.265,167.072c0-29.608-24.094-53.702-53.702-53.702s-53.702,24.094-53.702,53.702
			s24.094,53.702,53.702,53.702S131.265,196.68,131.265,167.072z M77.563,208.834c-23.032,0-41.768-18.736-41.768-41.768
			s18.736-41.768,41.768-41.768s41.768,18.736,41.768,41.768S100.595,208.834,77.563,208.834z"/>
		<path style="fill:#010002;" d="M256.569,113.371c-29.614,0-53.702,24.094-53.702,53.702s24.088,53.702,53.702,53.702
			c29.614,0,53.702-24.088,53.702-53.702S286.183,113.371,256.569,113.371z M256.569,208.834c-23.026,0-41.768-18.736-41.768-41.768
			s18.742-41.768,41.768-41.768s41.768,18.736,41.768,41.768S279.602,208.834,256.569,208.834z"/>
		<path style="fill:#010002;" d="M256.569,89.503c-42.771,0-77.569,34.799-77.569,77.569c0,14.977,4.374,29.441,12.286,41.768
			h-48.433c7.906-12.322,12.286-26.785,12.286-41.768c0-42.771-34.799-77.569-77.569-77.569S0,124.302,0,167.072
			c0,42.765,34.799,77.569,77.569,77.569h179.006c42.771,0,77.569-34.799,77.569-77.569
			C334.139,124.296,299.34,89.503,256.569,89.503z M256.569,232.702H77.563c-36.189,0-65.636-29.447-65.636-65.636
			s29.446-65.636,65.636-65.636s65.636,29.447,65.636,65.636c0,22.197-11.104,41.816-28.014,53.702h103.77
			c-16.916-11.886-28.014-31.505-28.014-53.702c0-36.189,29.447-65.636,65.636-65.636s65.636,29.447,65.636,65.636
			C322.205,203.255,292.764,232.702,256.569,232.702z"/>
	</g>
</g>
<g>
</g>
<g>
</g>
<g>
</g>
<g>
</g>
<g>
</g>
<g>
</g>
<g>
</g>
<g>
</g>
<g>
</g>
<g>
</g>
<g>
</g>
<g>
</g>
<g>
</g>
<g>
</g>
<g>
</g>
</svg>
