<?xml version="1.0" encoding="utf-8"?>
<!-- Generator: Adobe Illustrator 14.0.0, SVG Export Plug-In . SVG Version: 6.00 Build 43363)  -->
<!DOCTYPE svg PUBLIC "-//W3C//DTD SVG 1.1//EN" "http://www.w3.org/Graphics/SVG/1.1/DTD/svg11.dtd">
<svg version="1.1" id="Layer_1" xmlns="http://www.w3.org/2000/svg" xmlns:xlink="http://www.w3.org/1999/xlink" x="0px" y="0px"
	 width="1000px" height="400px" viewBox="0 0 1000 400" enable-background="new 0 0 1000 400" xml:space="preserve">
<path fill="#414042" d="M711.202,237.224h-58.895c-2.987,0-5.751,1.583-7.261,4.157l-38.373,64.984
	c-3.289,5.611,0.758,12.5,7.261,12.5h232.56c6.481,0,10.533-7.19,7.287-12.802L684.353,20.371
	c-3.241-5.599-11.322-5.607-14.569-0.013L487.59,327.84c-1.525,2.629-1.517,5.879,0.027,8.497l31.188,52.071
	c1.515,2.571,4.273,4.146,7.255,4.146h4.215c3.004,0,5.772-1.595,7.283-4.187l131.5-221.481c3.262-5.609,12.217-5.575,15.426,0.06
	l34.031,57.686C721.72,230.246,717.663,237.224,711.202,237.224"/>
<path fill="#414042" d="M571.604,11.658l-88.314,149.135c-3.246,5.586-10.47,5.586-13.716,0L381.262,11.658
	c-1.507-2.592-4.279-4.189-7.279-4.189h-88.831c-4.648,0-8.416,3.769-8.416,8.419v368.249c0,4.649,3.768,8.421,8.416,8.421h62.481
	c4.652,0,8.42-3.771,8.42-8.421v-242.13c0-8.598,10.531-11.666,14.852-4.228l99.556,168.334c3.236,5.563,10.427,5.585,13.689,0.034
	L653.436,20.153c3.3-5.613-0.747-12.685-7.256-12.685h-67.294C575.884,7.469,573.113,9.065,571.604,11.658"/>
<path fill="#414042" d="M619.441,379.308v-13.102c0-5.636-1.679-9.933-5.025-12.906c-3.348-2.979-8.05-4.47-14.108-4.47
	c-6.275,0-12.116,1.798-17.523,5.391l3.294,6.831c2.25-1.551,4.448-2.731,6.593-3.537c2.14-0.799,4.338-1.202,6.588-1.202
	c3.108,0,5.46,0.75,7.034,2.251c1.582,1.504,2.371,3.644,2.371,6.432v2.415c-1.387-0.593-2.986-1.052-4.781-1.369
	c-1.795-0.322-3.633-0.482-5.502-0.482c-2.633,0-5.042,0.337-7.24,1.001c-2.198,0.676-4.088,1.598-5.666,2.775
	c-1.584,1.181-2.813,2.616-3.702,4.306c-0.884,1.687-1.323,3.527-1.323,5.503c0,1.932,0.359,3.698,1.085,5.309
	c0.72,1.612,1.727,3.013,3.014,4.221c1.286,1.207,2.817,2.147,4.586,2.814c1.77,0.673,3.67,1.009,5.704,1.009
	c3.061,0,5.926-0.644,8.605-1.934c2.679-1.289,4.956-3.158,6.836-5.623l0.239,2.327c0.265,1.499,0.947,2.704,2.049,3.614
	c1.097,0.913,2.664,1.372,4.708,1.372c1.335,0,2.919-0.186,4.734-0.563v-9.168c-0.905-0.048-1.562-0.32-1.965-0.805
	C619.643,381.237,619.441,380.433,619.441,379.308 M608.664,378.02c0,1.124-0.587,2.146-1.768,3.056
	c-0.911,1.07-2.178,1.931-3.819,2.572c-1.631,0.646-3.357,0.967-5.179,0.967c-2.045,0-3.755-0.604-5.147-1.81
	c-1.398-1.209-2.092-2.722-2.092-4.541c0-1.933,0.884-3.527,2.652-4.79c1.77-1.258,4.047-1.888,6.837-1.888
	c1.388,0,2.839,0.15,4.338,0.447c1.499,0.295,2.892,0.678,4.178,1.166V378.02z"/>
<path fill="#414042" d="M667.236,355.347c-1.901-1.986-4.205-3.564-6.916-4.745c-2.701-1.179-5.778-1.77-9.205-1.77
	c-3.431,0-6.523,0.591-9.282,1.77c-2.765,1.181-5.106,2.777-7.038,4.787c-1.928,2.013-3.406,4.343-4.417,6.993
	c-1.022,2.652-1.53,5.481-1.53,8.486c0,2.895,0.519,5.651,1.562,8.272c1.049,2.632,2.537,4.941,4.47,6.924
	c1.928,1.98,4.263,3.548,6.99,4.7c2.732,1.149,5.788,1.731,9.167,1.731c4.713,0,8.775-1.035,12.176-3.098
	c3.41-2.065,5.883-4.705,7.445-7.923l-9.252-2.571c-0.693,1.717-1.996,3.099-3.897,4.144c-1.9,1.042-3.924,1.566-6.074,1.566
	c-1.388,0-2.728-0.239-4.02-0.729c-1.282-0.479-2.436-1.173-3.453-2.083c-1.017-0.911-1.854-2.013-2.488-3.295
	c-0.646-1.291-1.049-2.765-1.208-4.427h32.564c0.1-0.429,0.169-0.962,0.201-1.61c0.021-0.641,0.031-1.308,0.031-2.012
	c0-2.836-0.492-5.574-1.483-8.198C670.589,359.639,669.138,357.327,667.236,355.347 M640.101,367.087
	c0.106-1.554,0.471-2.979,1.085-4.263c0.614-1.282,1.409-2.386,2.373-3.295c0.964-0.91,2.076-1.623,3.337-2.128
	c1.26-0.514,2.615-0.766,4.062-0.766c2.944,0,5.454,0.951,7.51,2.849c2.07,1.904,3.235,4.441,3.5,7.603H640.101z"/>
<path fill="#414042" d="M710.821,371.269c-1.313-0.964-3.004-1.822-5.068-2.576c-2.06-0.75-4.544-1.497-7.436-2.252
	c-1.558-0.37-2.854-0.738-3.897-1.085c-1.049-0.35-1.891-0.705-2.537-1.083c-0.641-0.379-1.112-0.806-1.403-1.29
	c-0.296-0.479-0.444-1.094-0.444-1.848c0-1.66,0.614-2.865,1.848-3.62c1.239-0.749,2.765-1.122,4.587-1.122
	c1.98,0,3.977,0.373,5.989,1.122c2.013,0.755,4.088,1.933,6.228,3.537l4.343-6.506c-2.304-2.041-4.835-3.513-7.594-4.426
	c-2.765-0.912-5.73-1.37-8.893-1.37c-2.356,0-4.538,0.323-6.551,0.973c-2.007,0.643-3.76,1.564-5.265,2.769
	c-1.498,1.208-2.663,2.67-3.499,4.383c-0.827,1.714-1.245,3.646-1.245,5.794c0,1.604,0.275,2.986,0.806,4.136
	c0.534,1.149,1.393,2.171,2.579,3.053c1.175,0.891,2.727,1.68,4.659,2.373c1.928,0.702,4.259,1.422,6.996,2.174
	c3.262,0.91,5.624,1.713,7.075,2.409c1.44,0.702,2.171,1.799,2.171,3.3s-0.619,2.647-1.854,3.458
	c-1.239,0.805-2.923,1.202-5.063,1.202c-2.409,0-4.835-0.466-7.276-1.406c-2.436-0.937-4.946-2.316-7.521-4.141l-4.02,6.757
	c2.41,2.084,5.307,3.694,8.686,4.824c3.373,1.126,6.826,1.689,10.369,1.689c5.254,0,9.405-1.193,12.467-3.58
	c3.055-2.383,4.58-5.643,4.58-9.775c0-1.767-0.307-3.281-0.927-4.541C713.098,373.344,712.129,372.229,710.821,371.269"/>
<path fill="#414042" d="M744.146,381.963c-1.074,0.371-2.171,0.562-3.298,0.562c-1.124,0-2.077-0.308-2.855-0.929
	c-0.778-0.612-1.164-1.669-1.164-3.173v-20.582h8.843v-8.283h-8.843v-13.671h-10.778v13.671h-5.544v8.283h5.544v24.201
	c0,1.875,0.297,3.472,0.885,4.782c0.599,1.313,1.382,2.389,2.373,3.215c0.995,0.828,2.14,1.436,3.458,1.812
	c1.313,0.371,2.722,0.561,4.221,0.561c2.309,0,4.507-0.325,6.593-0.966c2.092-0.639,3.861-1.284,5.307-1.928l-2.171-8.524
	C746.075,381.264,745.217,381.585,744.146,381.963"/>
<path fill="#414042" d="M793.106,353.982c-0.964-1.554-2.303-2.799-4.02-3.738c-1.715-0.943-3.94-1.412-6.678-1.412
	c-3.209,0-6.147,0.739-8.802,2.217c-2.653,1.476-4.756,3.569-6.312,6.31v-24.366h-10.772v58.694h10.772v-24.6
	c0.375-1.292,0.969-2.465,1.768-3.543c0.806-1.069,1.69-1.991,2.659-2.77c0.963-0.775,1.975-1.38,3.051-1.809
	c1.074-0.429,2.092-0.644,3.056-0.644c2.25,0,3.993,0.795,5.227,2.373c1.233,1.583,1.848,4.035,1.848,7.351v23.641h10.778v-26.289
	c0-2.089-0.191-4.128-0.563-6.111C794.743,357.309,794.066,355.537,793.106,353.982"/>
<path fill="#414042" d="M842.829,355.347c-1.9-1.986-4.205-3.564-6.911-4.745c-2.706-1.179-5.777-1.77-9.209-1.77
	s-6.524,0.591-9.284,1.77c-2.759,1.181-5.104,2.777-7.032,4.787c-1.934,2.013-3.405,4.343-4.422,6.993
	c-1.021,2.652-1.531,5.481-1.531,8.486c0,2.895,0.52,5.651,1.567,8.272c1.044,2.632,2.531,4.941,4.465,6.924
	c1.934,1.98,4.264,3.548,6.99,4.7c2.738,1.149,5.794,1.731,9.168,1.731c4.713,0,8.774-1.035,12.18-3.098
	c3.405-2.065,5.879-4.705,7.441-7.923l-9.253-2.571c-0.693,1.717-1.99,3.099-3.896,4.144c-1.902,1.042-3.925,1.566-6.07,1.566
	c-1.393,0-2.731-0.239-4.02-0.729c-1.28-0.479-2.436-1.173-3.457-2.083c-1.017-0.911-1.849-2.013-2.49-3.295
	c-0.64-1.291-1.048-2.765-1.207-4.427h32.559c0.106-0.429,0.181-0.962,0.207-1.61c0.021-0.641,0.037-1.308,0.037-2.012
	c0-2.836-0.492-5.574-1.488-8.198C846.182,359.639,844.73,357.327,842.829,355.347 M815.699,367.087
	c0.1-1.554,0.466-2.979,1.08-4.263c0.62-1.282,1.414-2.386,2.373-3.295c0.964-0.91,2.081-1.623,3.336-2.128
	c1.261-0.514,2.616-0.766,4.062-0.766c2.944,0,5.455,0.951,7.516,2.849c2.064,1.904,3.23,4.441,3.495,7.603H815.699z"/>
<path fill="#414042" d="M877.448,381.963c-1.075,0.371-2.172,0.562-3.299,0.562c-1.124,0-2.077-0.308-2.855-0.929
	c-0.772-0.612-1.164-1.669-1.164-3.173v-20.582h8.843v-8.283h-8.843v-13.671h-10.777v13.671h-5.545v8.283h5.545v24.201
	c0,1.875,0.296,3.472,0.89,4.782c0.593,1.313,1.376,2.389,2.373,3.215c0.989,0.828,2.139,1.436,3.457,1.812
	c1.309,0.371,2.717,0.561,4.222,0.561c2.303,0,4.501-0.325,6.587-0.966c2.092-0.639,3.861-1.284,5.307-1.928l-2.172-8.524
	C879.376,381.264,878.518,381.585,877.448,381.963"/>
<rect x="889.835" y="332.992" fill="#414042" width="10.772" height="10.698"/>
<rect x="889.835" y="349.558" fill="#414042" width="10.772" height="42.132"/>
<path fill="#414042" d="M937.143,381.881c-1.637,0.961-3.416,1.443-5.35,1.443c-1.498,0-2.923-0.305-4.257-0.925
	c-1.346-0.611-2.511-1.485-3.495-2.61c-0.996-1.128-1.785-2.468-2.373-4.022c-0.594-1.552-0.885-3.264-0.885-5.142
	s0.281-3.593,0.843-5.148c0.566-1.551,1.34-2.881,2.335-3.979c0.991-1.102,2.155-1.957,3.495-2.573
	c1.341-0.612,2.786-0.925,4.337-0.925c1.822,0,3.484,0.416,4.989,1.248c1.499,0.834,2.706,2.021,3.622,3.577l10.533-3.217
	c-1.615-3.215-4.04-5.815-7.281-7.802c-3.241-1.98-7.171-2.974-11.778-2.974c-3.431,0-6.514,0.591-9.251,1.77
	c-2.728,1.181-5.058,2.759-6.99,4.745c-1.934,1.98-3.405,4.292-4.423,6.913c-1.017,2.624-1.53,5.418-1.53,8.365
	c0,2.894,0.524,5.663,1.567,8.322c1.049,2.65,2.537,4.983,4.465,6.995c1.933,2.005,4.263,3.599,6.995,4.785
	c2.732,1.173,5.815,1.769,9.246,1.769c4.667,0,8.654-1.024,11.984-3.061c3.316-2.033,5.704-4.663,7.15-7.878l-10.533-3.217
	C939.912,379.736,938.778,380.914,937.143,381.881"/>
<path fill="#414042" d="M991.737,374.603c-0.62-1.259-1.584-2.37-2.893-3.334c-1.318-0.964-3.008-1.822-5.073-2.579
	c-2.055-0.744-4.538-1.494-7.43-2.251c-1.557-0.368-2.854-0.733-3.897-1.08c-1.049-0.35-1.891-0.708-2.537-1.089
	c-0.646-0.374-1.111-0.803-1.403-1.284c-0.297-0.482-0.444-1.097-0.444-1.854c0-1.655,0.614-2.862,1.848-3.62
	c1.234-0.744,2.759-1.122,4.582-1.122c1.985,0,3.977,0.378,5.989,1.122c2.017,0.758,4.088,1.936,6.232,3.543l4.343-6.509
	c-2.31-2.041-4.835-3.513-7.599-4.425c-2.76-0.91-5.726-1.368-8.887-1.368c-2.356,0-4.539,0.322-6.551,0.967
	c-2.008,0.646-3.766,1.564-5.271,2.774c-1.493,1.205-2.658,2.667-3.495,4.383c-0.831,1.713-1.243,3.644-1.243,5.791
	c0,1.602,0.269,2.983,0.799,4.139c0.54,1.149,1.397,2.171,2.579,3.053c1.175,0.888,2.728,1.677,4.66,2.373
	c1.928,0.701,4.263,1.416,6.996,2.174c3.268,0.91,5.629,1.71,7.08,2.404c1.44,0.701,2.166,1.801,2.166,3.3
	c0,1.506-0.614,2.652-1.849,3.46c-1.233,0.802-2.923,1.205-5.063,1.205c-2.415,0-4.84-0.469-7.281-1.412
	c-2.437-0.932-4.941-2.312-7.515-4.138l-4.025,6.754c2.415,2.09,5.307,3.697,8.686,4.827c3.379,1.126,6.837,1.689,10.374,1.689
	c5.254,0,9.406-1.196,12.462-3.583c3.055-2.382,4.58-5.643,4.58-9.77C992.658,377.371,992.352,375.862,991.737,374.603"/>
<path fill="#414042" d="M16.178,392.558h236.078c4.647,0,8.417-3.773,8.417-8.421v-57.163c0-4.647-3.769-8.415-8.417-8.415H95.498
	c-4.649,0-8.419-3.77-8.419-8.42v-64.553c0-4.65,3.77-8.421,8.419-8.421h61.168c2.974,0,5.726-1.57,7.242-4.128l33.823-57.165
	c3.322-5.609-0.724-12.706-7.245-12.706H95.498c-4.649,0-8.419-3.766-8.419-8.417V90.194c0-4.651,3.77-8.416,8.419-8.416h156.757
	c4.647,0,8.417-3.77,8.417-8.42V15.886c0-4.649-3.769-8.417-8.417-8.417H16.178c-4.647,0-8.417,3.767-8.417,8.417v368.25
	C7.761,388.784,11.531,392.558,16.178,392.558"/>
</svg>
