<svg height="512pt" viewBox="0 0 512 512" width="512pt" xmlns="http://www.w3.org/2000/svg"><path d="m494.933594 0h-477.867188c-9.421875.0117188-17.0546872 7.644531-17.066406 17.066406v119.46875c.0117188 9.417969 7.644531 17.054688 17.066406 17.066406v341.332032c.011719 9.421875 7.644532 17.054687 17.066406 17.066406h443.734376c9.421874-.011719 17.054687-7.644531 17.066406-17.066406v-341.332032c9.421875-.011718 17.054687-7.648437 17.066406-17.066406v-119.46875c-.011719-9.421875-7.644531-17.0546872-17.066406-17.066406zm-324.265625 494.933594h-102.402344v-204.800782h102.402344zm17.066406 0v-204.800782c-.011719-9.421874-7.648437-17.054687-17.066406-17.066406h-102.402344c-9.421875.011719-17.054687 7.644532-17.066406 17.066406v204.800782h-17.066407v-341.332032h443.734376v25.597657h-247.46875c-9.417969.011719-17.054688 7.644531-17.066407 17.066406v221.867187c-4.710937 0-8.53125 3.820313-8.53125 8.535157 0 4.710937 3.820313 8.53125 8.53125 8.53125h264.539063v59.734375zm267.03125-241.433594c1.601563 1.601562 3.769531 2.5 6.035156 2.5 2.261719 0 4.433594-.898438 6.03125-2.5l11.035157-11.03125v175.664062h-25.601563v-85.332031c4.714844 0 8.535156-3.820312 8.535156-8.535156 0-4.710937-3.820312-8.53125-8.535156-8.53125h-25.597656v-59.734375c-.011719-9.421875-7.648438-17.054688-17.066407-17.066406h-17.066406c-9.421875.011718-17.058594 7.644531-17.070312 17.066406v59.734375h-25.597656c-4.714844 0-8.535157 3.820313-8.535157 8.53125 0 4.714844 3.820313 8.535156 8.535157 8.535156v85.332031h-25.601563v-52.90625c-.007813-6.605468-2.625-12.945312-7.273437-17.636718-1.203126-1.15625-1.988282-2.683594-2.226563-4.332032l-2.105469-12.570312c1.925782-1.578125 3.050782-3.929688 3.074219-6.421875 0-4.710937-3.820313-8.53125-8.535156-8.53125h-34.132813c-4.710937 0-8.53125 3.820313-8.53125 8.53125.019532 2.492187 1.144532 4.84375 3.070313 6.421875l-2.132813 12.714844c-.253906 1.601562-1.03125 3.074218-2.210937 4.1875-4.644531 4.695312-7.253907 11.03125-7.261719 17.636718v52.90625h-25.601562v-124.464843l52.96875-52.96875c3.234374-3.347657 3.1875-8.671875-.105469-11.960938-3.289063-3.292969-8.613281-3.339843-11.960938-.105469l-40.902343 40.898438v-73.265625h64.734374l-2.5 2.5c-2.21875 2.144531-3.105468 5.316406-2.328124 8.300781.78125 2.984375 3.113281 5.3125 6.097656 6.09375 2.980468.78125 6.15625-.109375 8.296875-2.328125l14.566406-14.566406h35.601563l-40.898438 40.902344c-2.21875 2.140625-3.109375 5.3125-2.328125 8.296875s3.109375 5.3125 6.09375 6.09375 6.15625-.105469 8.296875-2.324219l52.96875-52.96875h44.132812l-11.03125 11.035156c-2.21875 2.140625-3.109374 5.316407-2.328124 8.296875.78125 2.984375 3.109374 5.316406 6.09375 6.097656 2.984374.777344 6.15625-.109374 8.300781-2.328124l23.097656-23.101563h30.601563v22.066406l-23.101563 23.101563c-1.601563 1.597656-2.5 3.769531-2.5 6.03125 0 2.265625.898437 4.433594 2.5 6.035156zm-87.832031 96.367188v-17.066407h8.53125c9.421875-.011719 17.058594-7.644531 17.070312-17.066406v-25.601563h17.066406v25.601563c.007813 9.421875 7.644532 17.054687 17.066407 17.066406h8.53125v17.066407zm68.265625 17.066406v51.199218h-68.265625v-51.199218zm-42.664063-93.867188v-17.066406h17.066406v17.066406zm-119.46875 102.398438v-10.238282c0-2.082031.816406-4.082031 2.273438-5.570312 3.726562-3.660156 6.179687-8.421875 6.992187-13.582031l2.222657-13.273438h11.15625l2.195312 13.121094c.800781 5.210937 3.257812 10.023437 7.011719 13.726563 1.464843 1.488281 2.285156 3.492187 2.28125 5.578124v10.238282zm34.132813 17.070312v25.597656h-34.132813v-25.597656zm179.199219-256h-469.332032v-119.46875h477.867188l.007812 119.46875zm0 0"/><path d="m460.800781 34.132812h-409.601562c-9.421875.011719-17.054688 7.644532-17.066407 17.066407v51.199219c.011719 9.421874 7.644532 17.058593 17.066407 17.066406h409.601562c9.421875-.007813 17.054688-7.644532 17.066407-17.066406v-51.199219c-.011719-9.421875-7.644532-17.054688-17.066407-17.066407zm0 68.265626-409.601562.015624v-51.214843h409.601562zm0 0"/><path d="m196.265625 85.332031h170.667969c4.710937 0 8.53125-3.820312 8.53125-8.53125 0-4.714843-3.820313-8.535156-8.53125-8.535156h-170.667969c-4.710937 0-8.53125 3.820313-8.53125 8.535156 0 4.710938 3.820313 8.53125 8.53125 8.53125zm0 0"/><path d="m93.867188 85.332031h59.734374c4.710938 0 8.53125-3.820312 8.53125-8.53125 0-4.714843-3.820312-8.535156-8.53125-8.535156h-59.734374c-4.714844 0-8.535157 3.820313-8.535157 8.535156 0 4.710938 3.820313 8.53125 8.535157 8.53125zm0 0"/><path d="m409.601562 85.332031h8.53125c4.714844 0 8.535157-3.820312 8.535157-8.53125 0-4.714843-3.820313-8.535156-8.535157-8.535156h-8.53125c-4.714843 0-8.535156 3.820313-8.535156 8.535156 0 4.710938 3.820313 8.53125 8.535156 8.53125zm0 0"/><path d="m170.667969 179.199219h-102.402344c-9.421875.011719-17.054687 7.644531-17.066406 17.066406v42.667969c.011719 9.421875 7.644531 17.054687 17.066406 17.066406h102.402344c9.417969-.011719 17.054687-7.644531 17.066406-17.066406v-42.667969c-.011719-9.421875-7.648437-17.054687-17.066406-17.066406zm-102.402344 59.734375v-42.667969h62.628906l-48.761719 42.667969zm39.773437 0 48.761719-42.667969h13.867188l.007812 42.667969zm0 0"/><path d="m119.464844 426.667969h17.070312c9.417969-.011719 17.054688-7.648438 17.066406-17.066407v-42.667968c-.011718-9.421875-7.648437-17.054688-17.066406-17.066406h-17.070312c-9.417969.011718-17.054688 7.644531-17.066406 17.066406v42.667968c.011718 9.417969 7.648437 17.054688 17.066406 17.066407zm0-59.734375h17.070312l.007813 42.667968h-17.078125zm0 0"/><path d="m392.535156 401.066406h17.066406c4.710938 0 8.53125-3.820312 8.53125-8.53125 0-4.714844-3.820312-8.535156-8.53125-8.535156h-17.066406c-4.714844 0-8.535156 3.820312-8.535156 8.535156 0 4.710938 3.820312 8.53125 8.535156 8.53125zm0 0"/></svg>